<svg width="40" height="40" viewBox="0 0 40 40" fill="none" xmlns="http://www.w3.org/2000/svg">
<circle cx="20" cy="20" r="20" fill="#D9D9D9"/>
<path d="M20.6836 28H17.5664V14.1484C17.5664 13.1953 17.75 12.3945 18.1172 11.7461C18.4844 11.0898 19.0078 10.5938 19.6875 10.2578C20.3672 9.92188 21.168 9.75391 22.0898 9.75391C22.3945 9.75391 22.6836 9.77344 22.957 9.8125C23.2383 9.85156 23.5156 9.90625 23.7891 9.97656L23.7305 12.332C23.582 12.293 23.418 12.2656 23.2383 12.25C23.0664 12.2344 22.875 12.2266 22.6641 12.2266C22.2422 12.2266 21.8828 12.3008 21.5859 12.4492C21.2891 12.5977 21.0625 12.8164 20.9062 13.1055C20.7578 13.3867 20.6836 13.7344 20.6836 14.1484V28ZM23.25 15.3203V17.5469H15.6562V15.3203H23.25Z" fill="black"/>
</svg>
