<svg width="40" height="40" viewBox="0 0 40 40" fill="none" xmlns="http://www.w3.org/2000/svg">
<circle cx="20" cy="20" r="20" fill="#D9D9D9"/>
<g clip-path="url(#clip0_58_6176)">
<path d="M20 9.34239C23.4711 9.34239 23.8823 9.3556 25.2531 9.41814C26.5206 9.47599 27.2089 9.68777 27.667 9.86575C28.2738 10.1016 28.7069 10.3833 29.1618 10.8382C29.6167 11.2931 29.8984 11.7262 30.1342 12.333C30.3122 12.7911 30.524 13.4794 30.5819 14.7469C30.6444 16.1177 30.6576 16.5289 30.6576 20C30.6576 23.4712 30.6444 23.8823 30.5819 25.2531C30.524 26.5206 30.3122 27.2089 30.1342 27.6671C29.8984 28.2738 29.6167 28.7069 29.1618 29.1618C28.7069 29.6167 28.2738 29.8985 27.667 30.1342C27.2089 30.3123 26.5206 30.5241 25.2531 30.5819C23.8825 30.6445 23.4713 30.6577 20 30.6577C16.5286 30.6577 16.1175 30.6445 14.7469 30.5819C13.4794 30.5241 12.7911 30.3123 12.333 30.1342C11.7262 29.8985 11.2931 29.6167 10.8382 29.1618C10.3833 28.7069 10.1015 28.2738 9.86575 27.6671C9.68772 27.2089 9.47594 26.5206 9.41809 25.2532C9.35555 23.8823 9.34234 23.4712 9.34234 20C9.34234 16.5289 9.35555 16.1177 9.41809 14.7469C9.47594 13.4794 9.68772 12.7911 9.86575 12.333C10.1015 11.7262 10.3833 11.2931 10.8382 10.8382C11.2931 10.3833 11.7262 10.1016 12.333 9.86575C12.7911 9.68777 13.4794 9.47599 14.7468 9.41814C16.1177 9.3556 16.5288 9.34239 20 9.34239ZM20 7C16.4694 7 16.0267 7.01497 14.6401 7.07823C13.2564 7.14139 12.3114 7.36112 11.4845 7.68251C10.6296 8.01473 9.90461 8.45925 9.1819 9.18195C8.45919 9.90466 8.01468 10.6296 7.68246 11.4845C7.36107 12.3115 7.14134 13.2564 7.07818 14.6402C7.01491 16.0267 7 16.4694 7 20C7 23.5306 7.01491 23.9733 7.07818 25.3599C7.14134 26.7436 7.36107 27.6886 7.68246 28.5155C8.01468 29.3704 8.45919 30.0954 9.1819 30.8181C9.90461 31.5408 10.6296 31.9853 11.4845 32.3175C12.3114 32.6389 13.2564 32.8587 14.6401 32.9218C16.0267 32.9851 16.4694 33 20 33C23.5306 33 23.9733 32.9851 25.3598 32.9218C26.7436 32.8587 27.6885 32.6389 28.5155 32.3175C29.3704 31.9853 30.0953 31.5408 30.818 30.8181C31.5408 30.0954 31.9853 29.3704 32.3175 28.5155C32.6389 27.6886 32.8586 26.7436 32.9218 25.3599C32.985 23.9733 33 23.5306 33 20C33 16.4694 32.985 16.0267 32.9218 14.6402C32.8586 13.2564 32.6389 12.3115 32.3175 11.4845C31.9853 10.6296 31.5408 9.90466 30.818 9.18195C30.0953 8.45925 29.3704 8.01473 28.5155 7.68251C27.6885 7.36112 26.7436 7.14139 25.3598 7.07823C23.9733 7.01497 23.5306 7 20 7ZM20 13.3243C16.3131 13.3243 13.3243 16.3132 13.3243 20C13.3243 23.6869 16.3131 26.6757 20 26.6757C23.6868 26.6757 26.6757 23.6869 26.6757 20C26.6757 16.3132 23.6868 13.3243 20 13.3243ZM20 24.3334C17.6068 24.3334 15.6666 22.3932 15.6666 20C15.6666 17.6068 17.6068 15.6667 20 15.6667C22.3932 15.6667 24.3333 17.6068 24.3333 20C24.3333 22.3932 22.3932 24.3334 20 24.3334ZM28.4994 13.0606C28.4994 13.9222 27.801 14.6206 26.9394 14.6206C26.0778 14.6206 25.3794 13.9222 25.3794 13.0606C25.3794 12.199 26.0778 11.5006 26.9394 11.5006C27.801 11.5006 28.4994 12.199 28.4994 13.0606Z" fill="#0A0A08"/>
</g>
<defs>
<clipPath id="clip0_58_6176">
<rect width="26" height="26" fill="white" transform="translate(7 7)"/>
</clipPath>
</defs>
</svg>
