<svg width="40" height="40" viewBox="0 0 40 40" fill="none" xmlns="http://www.w3.org/2000/svg">
<circle cx="20" cy="20" r="20" fill="#D9D9D9"/>
<path d="M30.2688 14.3327C30.2846 14.5584 30.2846 14.784 30.2846 15.0117C30.2846 21.9498 24.9588 29.9516 15.2203 29.9516V29.9474C12.3435 29.9516 9.52651 29.1344 7.10474 27.5935C7.52304 27.6434 7.94345 27.6683 8.3649 27.6694C10.7489 27.6715 13.0648 26.8781 14.9404 25.4173C12.6748 25.3747 10.6881 23.9097 9.99409 21.771C10.7877 21.9228 11.6055 21.8916 12.3844 21.6805C9.91441 21.1856 8.1374 19.0334 8.1374 16.5338V16.4673C8.87337 16.8738 9.6974 17.0995 10.5403 17.1244C8.21393 15.5825 7.49683 12.5132 8.90167 10.1135C11.5897 13.3939 15.5558 15.3881 19.8133 15.5991C19.3866 13.7754 19.9695 11.8644 21.345 10.5824C23.4774 8.59446 26.8312 8.69635 28.8357 10.8101C30.0214 10.5783 31.1579 10.1468 32.1979 9.53541C31.8026 10.7509 30.9755 11.7833 29.8705 12.4394C30.9199 12.3167 31.9452 12.038 32.9108 11.6128C32.2 12.6692 31.3047 13.5893 30.2688 14.3327Z" fill="#080911"/>
</svg>
